# xmcd CD database file
#
# Track frame offsets:
#	150
#	12523
#	27421
#	40492
#	54474
#	68860
#	81056
#	93415
#	106974
#	120043
#	135341
#	148865
#	160424
#	172741
#	184958
#	198992
#	213288
#	227414
#	238479
#	251597
#	263422
#	275471
#	290148
#	304753
#	319189
#
# Disc length: 4461 seconds
#
# Revision: 1
# Processed by: cddbd v1.4PL0 Copyright (c) Steve Scherf et al.
# Submitted via: NeoAudio 9.9.9
#
DISCID=63116b19
DTITLE=Ella Fitzgerald - Golden Greats disc 2
DYEAR=1999
DGENRE=Jazz
TTITLE0=When My Sugar Walks Down The Street
TTITLE1=He's My Guy
TTITLE2=I Got It Bad (And That Ain't Good)
TTITLE3=I Must Have That Man
TTITLE4=Somebody Nobody Loves
TTITLE5=Mama Come Home
TTITLE6=Shake Down The Stars
TTITLE7=My Heart And I Decided
TTITLE8=Cow-Cow Boogie
TTITLE9=You Don't Know What Love Is
TTITLE10=Jim
TTITLE11=Stone Cold Dead In The Market (He Had It Coming)
TTITLE12=I'm Beginning To See The Light
TTITLE13=It's Only A Paper Moon
TTITLE14=A Kiss Goodnight
TTITLE15=For Sentimental Reasons
TTITLE16=Into Each Life Some Rain Must Fall
TTITLE17=Flying Home
TTITLE18=You Won't Be Satisfied (Until You Break My Heart)
TTITLE19=Petootie Pie
TTITLE20=It's A Pity To Say Goodnight
TTITLE21=And Her Tears Flowed Like Wine
TTITLE22=That's The Way It Is
TTITLE23=The Frim Fram Sauce
TTITLE24=Benny's Coming Home On Saturday
EXTD=
EXTT0=
EXTT1=
EXTT2=
EXTT3=
EXTT4=
EXTT5=
EXTT6=
EXTT7=
EXTT8=
EXTT9=
EXTT10=
EXTT11=
EXTT12=
EXTT13=
EXTT14=
EXTT15=
EXTT16=
EXTT17=
EXTT18=
EXTT19=
EXTT20=
EXTT21=
EXTT22=
EXTT23=
EXTT24=
PLAYORDER=
